<svg id="Logo_pequeño" data-name="Logo pequeño" xmlns="http://www.w3.org/2000/svg" width="235" height="38.188" viewBox="0 0 235 38.188">
  <g id="Logo">
    <g id="Grupo_32" data-name="Grupo 32" transform="translate(17 -3.406)">
      <g id="Grupo_31" data-name="Grupo 31" transform="translate(21 10)">
        <g id="Grupo_30" data-name="Grupo 30">
          <g id="Grupo_29" data-name="Grupo 29">
            <g id="Grupo_28" data-name="Grupo 28">
              <g id="Grupo_27" data-name="Grupo 27">
                <g id="Grupo_26" data-name="Grupo 26">
                  <g id="Grupo_25" data-name="Grupo 25">
                    <g id="Grupo_24" data-name="Grupo 24">
                      <g id="Grupo_23" data-name="Grupo 23">
                        <g id="Grupo_22" data-name="Grupo 22">
                          <g id="Grupo_21" data-name="Grupo 21">
                            <path id="text-0" d="M17.008,9.8h0a1.075,1.075,0,0,0,.9-.462,1.78,1.78,0,0,0,.342-1.1,6.114,6.114,0,0,0-.109-1.189h0l.691-.11a4.732,4.732,0,0,1,.146,1.211h0a2.81,2.81,0,0,1-.779,2.092,2.768,2.768,0,0,1-2.023.771h0q-3.093,0-3.093-3.78a12.409,12.409,0,0,0-.946-5.563Q11.186-.1,8.276-.1H5.911V9.4a.452.452,0,0,0,.509.514H8.858v.661H.708V9.914h1.71A.452.452,0,0,0,2.927,9.4h0V-11.444q0-.44-.509-.44H.708v-.661H9.767a8.159,8.159,0,0,1,5.2,1.688,5.449,5.449,0,0,1,2.147,4.514h0A5.552,5.552,0,0,1,15.72-2.5a7.266,7.266,0,0,1-3.7,2.143h0A4.746,4.746,0,0,1,15.3,2.794h0a15.969,15.969,0,0,1,.546,4.44Q15.843,9.8,17.008,9.8ZM9.585-11.518H5.911V-1.169H9.585A4.1,4.1,0,0,0,12.991-2.71a5.694,5.694,0,0,0,1.215-3.633,5.694,5.694,0,0,0-1.215-3.633A4.1,4.1,0,0,0,9.585-11.518ZM23.375.226h0l-.109-.7L24.83-.765a5.936,5.936,0,0,0,3.638-1.982,5.009,5.009,0,0,0,1.273-3.229,4.4,4.4,0,0,0-.859-2.789,2.642,2.642,0,0,0-2.183-1.1,2.681,2.681,0,0,0-2.037.749,2.638,2.638,0,0,0-.706,1.872,5.428,5.428,0,0,0,.546,2.3h0a2.166,2.166,0,0,1-1.492.55h0q-1.528,0-1.528-2.055a3.666,3.666,0,0,1,1.47-3.141,6.1,6.1,0,0,1,3.7-1.079,6.8,6.8,0,0,1,3.98,1.226A3.682,3.682,0,0,1,32.4-6.329a5.211,5.211,0,0,1-1.259,3.413A6.884,6.884,0,0,1,27.668-.729h0a7.214,7.214,0,0,1,4.4,1.886A4.887,4.887,0,0,1,33.635,4.7h0a5.949,5.949,0,0,1-1.95,4.44,7.513,7.513,0,0,1-5.436,1.872h0A5.92,5.92,0,0,1,22.1,9.708a4.282,4.282,0,0,1-1.419-3.3q0-2,1.31-2h0A2.254,2.254,0,0,1,23.666,5h0a4.984,4.984,0,0,0-.473,2.239,3.071,3.071,0,0,0,.779,2.143,2.919,2.919,0,0,0,2.278.866h0a4.146,4.146,0,0,0,3.384-1.5,5.788,5.788,0,0,0,1.237-3.8,4.327,4.327,0,0,0-1.6-3.574A6.483,6.483,0,0,0,25.085.079h0A9.1,9.1,0,0,0,23.375.226ZM45.823,2.831H36.655V1.363h9.169Zm19.931,7.743h-.691l-.036-.514q-.036-.771-.582-.771h0a2.891,2.891,0,0,0-1.055.4h0a9.685,9.685,0,0,1-4.766,1.321h0a9.727,9.727,0,0,1-7.51-3.193Q48.181,4.629,48.181-.971t2.9-8.807a9.677,9.677,0,0,1,7.546-3.207h0a10.3,10.3,0,0,1,4.73,1.211h0a2.847,2.847,0,0,0,1.092.4h0q.546,0,.582-.771h0l.036-.624h.691v6.349H65.1a5.8,5.8,0,0,0-2.088-4.169,7.071,7.071,0,0,0-4.388-1.336h0A6.183,6.183,0,0,0,53.3-8.985Q51.274-6.05,51.274-.949t2.037,8a6.225,6.225,0,0,0,5.312,2.9h0a7.044,7.044,0,0,0,4.388-1.343A5.776,5.776,0,0,0,65.1,4.446h.655ZM84.965,9.8h0a1.075,1.075,0,0,0,.9-.462,1.78,1.78,0,0,0,.342-1.1,6.114,6.114,0,0,0-.109-1.189h0l.691-.11a4.732,4.732,0,0,1,.146,1.211h0a2.81,2.81,0,0,1-.779,2.092,2.768,2.768,0,0,1-2.023.771h0q-3.093,0-3.093-3.78a12.408,12.408,0,0,0-.946-5.563Q79.143-.1,76.233-.1H73.868V9.4a.452.452,0,0,0,.509.514h2.438v.661h-8.15V9.914h1.71a.452.452,0,0,0,.509-.514h0V-11.444q0-.44-.509-.44h-1.71v-.661h9.059a8.159,8.159,0,0,1,5.2,1.688,5.449,5.449,0,0,1,2.147,4.514h0a5.552,5.552,0,0,1-1.4,3.839,7.266,7.266,0,0,1-3.7,2.143h0a4.746,4.746,0,0,1,3.275,3.156h0a15.968,15.968,0,0,1,.546,4.44Q83.8,9.8,84.965,9.8ZM77.543-11.518H73.868V-1.169h3.675A4.1,4.1,0,0,0,80.948-2.71a5.694,5.694,0,0,0,1.215-3.633,5.694,5.694,0,0,0-1.215-3.633A4.1,4.1,0,0,0,77.543-11.518ZM99.991,10.574H87.948V9.914h1.71a.452.452,0,0,0,.509-.514h0V-11.444q0-.44-.509-.44h-1.71v-.661H99.482a16.834,16.834,0,0,0,4.039-.33h0a20.722,20.722,0,0,0-.327,4.183h0v1.725h-.837l-.546-3.743q-.073-.807-1.019-.807H93.151V-1.5h7.313q.437,0,.509-.514h0l.182-2.275h.655V2.317h-.655L100.974.042q-.073-.514-.509-.514H93.151V9.547h8.15q.946,0,1.019-.807h0l.546-4.294h.837V6.171a24.511,24.511,0,0,0,.327,4.734h0a16.834,16.834,0,0,0-4.039-.33Zm26.451-.661v.661h-7.459V9.914h2.365L118.8,2.831h-8L108.25,9.914h2.365v.661h-5.494V9.914h1.346a.686.686,0,0,0,.691-.514h0l8-21.945H116.4l8,21.945a.686.686,0,0,0,.691.514h1.346Zm-8-8.11-3.6-10.018L111.2,1.8Zm22-13.321h-4.693V9.473q0,.44.509.44h3.165v.661H129.091V9.914h3.165q.509,0,.509-.44h0V-11.518h-4.693q-.946,0-1.019.807h0l-.546,4.294h-.837V-8.141a24.511,24.511,0,0,0-.327-4.734h0a16.834,16.834,0,0,0,4.039.33h9.751a16.834,16.834,0,0,0,4.039-.33h0a24.51,24.51,0,0,0-.327,4.734h0v1.725h-.837l-.546-4.294q-.073-.807-1.019-.807Zm16.227,22.092H144.626V9.914h1.71a.452.452,0,0,0,.509-.514h0V-11.444q0-.44-.509-.44h-1.71v-.661H156.16a16.834,16.834,0,0,0,4.039-.33h0a20.72,20.72,0,0,0-.327,4.183h0v1.725h-.837l-.546-3.743q-.073-.807-1.019-.807h-7.641V-1.5h7.313q.437,0,.509-.514h0l.182-2.275h.655V2.317h-.655L157.652.042q-.073-.514-.509-.514h-7.313V9.547h8.15q.946,0,1.019-.807h0l.546-4.294h.837V6.171a24.512,24.512,0,0,0,.327,4.734h0a16.834,16.834,0,0,0-4.039-.33Z" transform="translate(-0.708 12.985)" fill="#6a8eae"/>
                          </g>
                        </g>
                      </g>
                    </g>
                  </g>
                </g>
              </g>
            </g>
          </g>
        </g>
      </g>
    </g>
    <g id="Grupo_53" data-name="Grupo 53">
      <path id="Trazado_7" data-name="Trazado 7" d="M0,38.188V0H235V38.188Zm232.479-.655V.655H2.521V37.532Z" fill="#6a8eae"/>
    </g>
  </g>
</svg>
