<svg xmlns="http://www.w3.org/2000/svg" version="1.1" xmlns:xlink="http://www.w3.org/1999/xlink" xmlns:svgjs="http://svgjs.dev/svgjs" width="1000" height="623" viewBox="0 0 1000 623"><g transform="matrix(1,0,0,1,-0.6060606060606233,0.2522267206477409)"><svg viewBox="0 0 396 247" data-background-color="#ffffff" preserveAspectRatio="xMidYMid meet" height="623" width="1000" xmlns="http://www.w3.org/2000/svg" xmlns:xlink="http://www.w3.org/1999/xlink"><defs></defs><g id="tight-bounds" transform="matrix(1,0,0,1,0.2400000000000091,-0.09999999999999432)"><svg viewBox="0 0 395.52 247.2" height="247.2" width="395.52"><g><svg></svg></g><g><svg viewBox="0 0 395.52 247.2" height="247.2" width="395.52"><g transform="matrix(1,0,0,1,39.55199999999999,100.07384447476124)"><svg viewBox="0 0 316.416 47.05231105047749" height="47.05231105047749" width="316.416"><g><svg viewBox="0 0 316.416 47.05231105047749" height="47.05231105047749" width="316.416"><g><svg viewBox="0 0 316.416 47.05231105047749" height="47.05231105047749" width="316.416"><g><svg viewBox="0 0 316.416 47.05231105047749" height="47.05231105047749" width="316.416"><g><svg viewBox="0 0 316.416 47.05231105047749" height="47.05231105047749" width="316.416"><g transform="matrix(1,0,0,1,0,0)"><svg width="316.416" viewBox="1.75 -32.099998474121094 219.8800048828125 32.69999694824219" height="47.05231105047749" data-palette-color="#6a8eae"><path d="M24.15-1.05L24.15-1.05Q24.9-1.05 25.38-1.68 25.85-2.3 25.85-3.18 25.85-4.05 25.7-4.8L25.7-4.8 26.65-4.95Q26.85-4.2 26.85-3.3L26.85-3.3Q26.85-1.5 25.78-0.45 24.7 0.6 23 0.6L23 0.6Q18.75 0.6 18.75-4.55 18.75-9.7 17.45-12.13 16.15-14.55 12.15-14.55L12.15-14.55 8.9-14.55 8.9-1.6Q8.9-0.9 9.6-0.9L9.6-0.9 12.95-0.9 12.95 0 1.75 0 1.75-0.9 4.1-0.9Q4.8-0.9 4.8-1.6L4.8-1.6 4.8-30Q4.8-30.6 4.1-30.6L4.1-30.6 1.75-30.6 1.75-31.5 14.2-31.5Q18.4-31.5 21.35-29.2 24.3-26.9 24.3-23.05L24.3-23.05Q24.3-19.95 22.38-17.82 20.45-15.7 17.3-14.9L17.3-14.9Q20.85-13.7 21.8-10.6L21.8-10.6Q22.55-8.05 22.55-4.55 22.55-1.05 24.15-1.05ZM13.95-30.1L13.95-30.1 8.9-30.1 8.9-16 13.95-16Q16.95-16 18.63-18.1 20.3-20.2 20.3-23.05 20.3-25.9 18.63-28 16.95-30.1 13.95-30.1ZM32.9-14.1L32.9-14.1 32.75-15.05 34.9-15.45Q38.15-16.05 39.9-18.15 41.65-20.25 41.65-22.55 41.65-24.85 40.47-26.35 39.3-27.85 37.47-27.85 35.65-27.85 34.67-26.83 33.7-25.8 33.7-24.28 33.7-22.75 34.45-21.15L34.45-21.15Q33.6-20.4 32.4-20.4L32.4-20.4Q30.3-20.4 30.3-23.2 30.3-26 32.32-27.48 34.35-28.95 37.4-28.95 40.45-28.95 42.87-27.28 45.3-25.6 45.3-23.03 45.3-20.45 43.57-18.38 41.85-16.3 38.8-15.4L38.8-15.4Q42.7-14.95 44.85-12.83 47-10.7 47-8L47-8Q47-4.5 44.32-1.95 41.65 0.6 36.85 0.6L36.85 0.6Q33.1 0.6 31.15-1.18 29.2-2.95 29.2-5.68 29.2-8.4 31-8.4L31-8.4Q32.5-8.4 33.3-7.6L33.3-7.6Q32.65-6.3 32.65-4.55 32.65-2.8 33.72-1.63 34.8-0.45 36.85-0.45L36.85-0.45Q39.8-0.45 41.5-2.5 43.2-4.55 43.2-7.68 43.2-10.8 41-12.55 38.8-14.3 35.25-14.3L35.25-14.3Q33.95-14.3 32.9-14.1ZM63.75-10.55L51.15-10.55 51.15-12.55 63.75-12.55 63.75-10.55ZM91.14 0L90.19 0 90.14-0.7Q90.09-1.75 89.34-1.75L89.34-1.75Q88.94-1.75 87.89-1.2L87.89-1.2Q84.64 0.6 81.34 0.6L81.34 0.6Q75.04 0.6 71.02-3.75 66.99-8.1 66.99-15.73 66.99-23.35 70.97-27.73 74.94-32.1 81.34-32.1L81.34-32.1Q84.59-32.1 87.84-30.45L87.84-30.45Q88.89-29.9 89.34-29.9L89.34-29.9Q90.09-29.9 90.14-30.95L90.14-30.95 90.19-31.8 91.14-31.8 91.14-23.15 90.24-23.15Q89.79-27 87.37-28.83 84.94-30.65 81.34-30.65L81.34-30.65Q76.79-30.65 74.02-26.65 71.24-22.65 71.24-15.7 71.24-8.75 74.04-4.8 76.84-0.85 81.34-0.85L81.34-0.85Q84.94-0.85 87.37-2.68 89.79-4.5 90.24-8.35L90.24-8.35 91.14-8.35 91.14 0ZM117.54-1.05L117.54-1.05Q118.29-1.05 118.77-1.68 119.24-2.3 119.24-3.18 119.24-4.05 119.09-4.8L119.09-4.8 120.04-4.95Q120.24-4.2 120.24-3.3L120.24-3.3Q120.24-1.5 119.17-0.45 118.09 0.6 116.39 0.6L116.39 0.6Q112.14 0.6 112.14-4.55 112.14-9.7 110.84-12.13 109.54-14.55 105.54-14.55L105.54-14.55 102.29-14.55 102.29-1.6Q102.29-0.9 102.99-0.9L102.99-0.9 106.34-0.9 106.34 0 95.14 0 95.14-0.9 97.49-0.9Q98.19-0.9 98.19-1.6L98.19-1.6 98.19-30Q98.19-30.6 97.49-30.6L97.49-30.6 95.14-30.6 95.14-31.5 107.59-31.5Q111.79-31.5 114.74-29.2 117.69-26.9 117.69-23.05L117.69-23.05Q117.69-19.95 115.77-17.82 113.84-15.7 110.69-14.9L110.69-14.9Q114.24-13.7 115.19-10.6L115.19-10.6Q115.94-8.05 115.94-4.55 115.94-1.05 117.54-1.05ZM107.34-30.1L107.34-30.1 102.29-30.1 102.29-16 107.34-16Q110.34-16 112.02-18.1 113.69-20.2 113.69-23.05 113.69-25.9 112.02-28 110.34-30.1 107.34-30.1ZM138.19 0L121.64 0 121.64-0.9 123.99-0.9Q124.69-0.9 124.69-1.6L124.69-1.6 124.69-30Q124.69-30.6 123.99-30.6L123.99-30.6 121.64-30.6 121.64-31.5 137.49-31.5Q141.44-31.5 143.04-31.95L143.04-31.95Q142.59-29.9 142.59-26.25L142.59-26.25 142.59-23.9 141.44-23.9 140.69-29Q140.59-30.1 139.29-30.1L139.29-30.1 128.79-30.1 128.79-16.45 138.84-16.45Q139.44-16.45 139.54-17.15L139.54-17.15 139.79-20.25 140.69-20.25 140.69-11.25 139.79-11.25 139.54-14.35Q139.44-15.05 138.84-15.05L138.84-15.05 128.79-15.05 128.79-1.4 139.99-1.4Q141.29-1.4 141.39-2.5L141.39-2.5 142.14-8.35 143.29-8.35 143.29-6Q143.29-1.6 143.74 0.45L143.74 0.45Q142.14 0 138.19 0L138.19 0ZM174.54-0.9L174.54 0 164.29 0 164.29-0.9 167.54-0.9 164.04-10.55 153.04-10.55 149.54-0.9 152.79-0.9 152.79 0 145.24 0 145.24-0.9 147.09-0.9Q147.79-0.9 148.04-1.6L148.04-1.6 159.04-31.5 160.74-31.5 171.74-1.6Q171.99-0.9 172.69-0.9L172.69-0.9 174.54-0.9ZM163.54-11.95L158.59-25.6 153.59-11.95 163.54-11.95ZM193.78-30.1L187.33-30.1 187.33-1.5Q187.33-0.9 188.03-0.9L188.03-0.9 192.38-0.9 192.38 0 178.18 0 178.18-0.9 182.53-0.9Q183.23-0.9 183.23-1.5L183.23-1.5 183.23-30.1 176.78-30.1Q175.48-30.1 175.38-29L175.38-29 174.63-23.15 173.48-23.15 173.48-25.5Q173.48-29.9 173.03-31.95L173.03-31.95Q174.63-31.5 178.58-31.5L178.58-31.5 191.98-31.5Q195.93-31.5 197.53-31.95L197.53-31.95Q197.08-29.9 197.08-25.5L197.08-25.5 197.08-23.15 195.93-23.15 195.18-29Q195.08-30.1 193.78-30.1L193.78-30.1ZM216.08 0L199.53 0 199.53-0.9 201.88-0.9Q202.58-0.9 202.58-1.6L202.58-1.6 202.58-30Q202.58-30.6 201.88-30.6L201.88-30.6 199.53-30.6 199.53-31.5 215.38-31.5Q219.33-31.5 220.93-31.95L220.93-31.95Q220.48-29.9 220.48-26.25L220.48-26.25 220.48-23.9 219.33-23.9 218.58-29Q218.48-30.1 217.18-30.1L217.18-30.1 206.68-30.1 206.68-16.45 216.73-16.45Q217.33-16.45 217.43-17.15L217.43-17.15 217.68-20.25 218.58-20.25 218.58-11.25 217.68-11.25 217.43-14.35Q217.33-15.05 216.73-15.05L216.73-15.05 206.68-15.05 206.68-1.4 217.88-1.4Q219.18-1.4 219.28-2.5L219.28-2.5 220.03-8.35 221.18-8.35 221.18-6Q221.18-1.6 221.63 0.45L221.63 0.45Q220.03 0 216.08 0L216.08 0Z" opacity="1" transform="matrix(1,0,0,1,0,0)" fill="#6a8eae" class="undefined-text-0" data-fill-palette-color="primary" id="text-0"></path></svg></g></svg></g></svg></g></svg></g><g></g></svg></g></svg></g><g><path d="M0 247.2v-247.2h395.52v247.2zM391.277 242.957v-238.714h-387.034v238.714z" fill="#6a8eae" data-fill-palette-color="tertiary"></path></g></svg></g></svg><rect width="395.52" height="247.2" fill="none" stroke="none" visibility="hidden"></rect></g></svg></g></svg>